<mxfile host="Electron" agent="Mozilla/5.0 (Windows NT 10.0; Win64; x64) AppleWebKit/537.36 (KHTML, like Gecko) draw.io/24.7.8 Chrome/128.0.6613.36 Electron/32.0.1 Safari/537.36" version="24.7.8">
  <diagram id="C5RBs43oDa-KdzZeNtuy" name="Page-1">
    <mxGraphModel dx="3154" dy="887" grid="1" gridSize="10" guides="1" tooltips="1" connect="1" arrows="1" fold="1" page="1" pageScale="1" pageWidth="827" pageHeight="1169" math="0" shadow="0">
      <root>
        <mxCell id="WIyWlLk6GJQsqaUBKTNV-0" />
        <mxCell id="WIyWlLk6GJQsqaUBKTNV-1" parent="WIyWlLk6GJQsqaUBKTNV-0" />
        <mxCell id="Slp04zxqnDzLB197546l-0" style="edgeStyle=orthogonalEdgeStyle;rounded=0;orthogonalLoop=1;jettySize=auto;html=1;entryX=0.5;entryY=0;entryDx=0;entryDy=0;" edge="1" parent="WIyWlLk6GJQsqaUBKTNV-1" source="1xu_-Tp41ohflqt6iPf_-1" target="1xu_-Tp41ohflqt6iPf_-3">
          <mxGeometry relative="1" as="geometry" />
        </mxCell>
        <mxCell id="1xu_-Tp41ohflqt6iPf_-1" value="&lt;div style=&quot;&quot;&gt;&lt;font color=&quot;#ffffff&quot; face=&quot;__Inter_36bd41, __Inter_Fallback_36bd41, ui-sans-serif, system-ui, sans-serif, Apple Color Emoji, Segoe UI Emoji, Segoe UI Symbol, Noto Color Emoji&quot;&gt;&lt;span style=&quot;font-size: 16px;&quot;&gt;Ввод координат от пользователя в виде (A1-B3)&lt;/span&gt;&lt;/font&gt;&lt;/div&gt;" style="rounded=1;whiteSpace=wrap;html=1;align=center;" parent="WIyWlLk6GJQsqaUBKTNV-1" vertex="1">
          <mxGeometry x="280" y="90" width="170" height="60" as="geometry" />
        </mxCell>
        <mxCell id="Slp04zxqnDzLB197546l-1" style="edgeStyle=orthogonalEdgeStyle;rounded=0;orthogonalLoop=1;jettySize=auto;html=1;" edge="1" parent="WIyWlLk6GJQsqaUBKTNV-1" source="1xu_-Tp41ohflqt6iPf_-3" target="1xu_-Tp41ohflqt6iPf_-4">
          <mxGeometry relative="1" as="geometry" />
        </mxCell>
        <mxCell id="1xu_-Tp41ohflqt6iPf_-3" value="Сбор информации и переводв систему координат(x, y)" style="rounded=1;whiteSpace=wrap;html=1;" parent="WIyWlLk6GJQsqaUBKTNV-1" vertex="1">
          <mxGeometry x="280" y="210" width="170" height="60" as="geometry" />
        </mxCell>
        <mxCell id="1xu_-Tp41ohflqt6iPf_-4" value="Ввод фигуры от пользователи&#39;" style="rounded=1;whiteSpace=wrap;html=1;" parent="WIyWlLk6GJQsqaUBKTNV-1" vertex="1">
          <mxGeometry x="280" y="320" width="170" height="60" as="geometry" />
        </mxCell>
        <mxCell id="1xu_-Tp41ohflqt6iPf_-9" value="" style="edgeStyle=orthogonalEdgeStyle;rounded=0;orthogonalLoop=1;jettySize=auto;html=1;" parent="WIyWlLk6GJQsqaUBKTNV-1" source="1xu_-Tp41ohflqt6iPf_-5" target="1xu_-Tp41ohflqt6iPf_-8" edge="1">
          <mxGeometry relative="1" as="geometry" />
        </mxCell>
        <mxCell id="1xu_-Tp41ohflqt6iPf_-63" style="edgeStyle=orthogonalEdgeStyle;rounded=0;orthogonalLoop=1;jettySize=auto;html=1;entryX=0.5;entryY=0;entryDx=0;entryDy=0;" parent="WIyWlLk6GJQsqaUBKTNV-1" source="1xu_-Tp41ohflqt6iPf_-5" target="1xu_-Tp41ohflqt6iPf_-27" edge="1">
          <mxGeometry relative="1" as="geometry" />
        </mxCell>
        <mxCell id="1xu_-Tp41ohflqt6iPf_-64" style="edgeStyle=orthogonalEdgeStyle;rounded=0;orthogonalLoop=1;jettySize=auto;html=1;" parent="WIyWlLk6GJQsqaUBKTNV-1" source="1xu_-Tp41ohflqt6iPf_-5" edge="1">
          <mxGeometry relative="1" as="geometry">
            <mxPoint x="820" y="620" as="targetPoint" />
          </mxGeometry>
        </mxCell>
        <mxCell id="1xu_-Tp41ohflqt6iPf_-65" style="edgeStyle=orthogonalEdgeStyle;rounded=0;orthogonalLoop=1;jettySize=auto;html=1;entryX=0.5;entryY=0;entryDx=0;entryDy=0;" parent="WIyWlLk6GJQsqaUBKTNV-1" source="1xu_-Tp41ohflqt6iPf_-5" target="1xu_-Tp41ohflqt6iPf_-45" edge="1">
          <mxGeometry relative="1" as="geometry" />
        </mxCell>
        <mxCell id="1xu_-Tp41ohflqt6iPf_-66" style="edgeStyle=orthogonalEdgeStyle;rounded=0;orthogonalLoop=1;jettySize=auto;html=1;entryX=0.5;entryY=0;entryDx=0;entryDy=0;" parent="WIyWlLk6GJQsqaUBKTNV-1" source="1xu_-Tp41ohflqt6iPf_-5" target="1xu_-Tp41ohflqt6iPf_-54" edge="1">
          <mxGeometry relative="1" as="geometry">
            <Array as="points">
              <mxPoint x="-168" y="515" />
            </Array>
          </mxGeometry>
        </mxCell>
        <mxCell id="1xu_-Tp41ohflqt6iPf_-94" style="edgeStyle=orthogonalEdgeStyle;rounded=0;orthogonalLoop=1;jettySize=auto;html=1;" parent="WIyWlLk6GJQsqaUBKTNV-1" source="1xu_-Tp41ohflqt6iPf_-5" target="1xu_-Tp41ohflqt6iPf_-95" edge="1">
          <mxGeometry relative="1" as="geometry">
            <mxPoint x="-550" y="610" as="targetPoint" />
          </mxGeometry>
        </mxCell>
        <mxCell id="GGxlq1EJ7_n-EhWVz28k-0" style="edgeStyle=orthogonalEdgeStyle;rounded=0;orthogonalLoop=1;jettySize=auto;html=1;" parent="WIyWlLk6GJQsqaUBKTNV-1" source="1xu_-Tp41ohflqt6iPf_-5" target="1xu_-Tp41ohflqt6iPf_-71" edge="1">
          <mxGeometry relative="1" as="geometry" />
        </mxCell>
        <mxCell id="1xu_-Tp41ohflqt6iPf_-5" value="Проверка фигуры на соответствие одному из типов фигур&lt;br&gt;&lt;br&gt;&lt;div style=&quot;color: rgb(204, 204, 204); background-color: rgb(31, 31, 31); font-family: Consolas, &amp;quot;Courier New&amp;quot;, monospace; font-size: 14px; line-height: 19px; white-space: pre;&quot;&gt;&lt;span style=&quot;color: #6a9955;&quot;&gt;Пешка, Ладья, Конь, Слон, Королева, Король&lt;/span&gt;&lt;/div&gt;" style="rounded=1;whiteSpace=wrap;html=1;" parent="WIyWlLk6GJQsqaUBKTNV-1" vertex="1">
          <mxGeometry x="210" y="460" width="350" height="110" as="geometry" />
        </mxCell>
        <mxCell id="1xu_-Tp41ohflqt6iPf_-11" value="" style="edgeStyle=orthogonalEdgeStyle;rounded=0;orthogonalLoop=1;jettySize=auto;html=1;" parent="WIyWlLk6GJQsqaUBKTNV-1" source="1xu_-Tp41ohflqt6iPf_-8" target="1xu_-Tp41ohflqt6iPf_-10" edge="1">
          <mxGeometry relative="1" as="geometry" />
        </mxCell>
        <mxCell id="1xu_-Tp41ohflqt6iPf_-8" value="&#xa;&lt;div style=&quot;color: #cccccc;background-color: #1f1f1f;font-family: Consolas, &#39;Courier New&#39;, monospace;font-weight: normal;font-size: 14px;line-height: 19px;white-space: pre;&quot;&gt;&lt;div&gt;&lt;span style=&quot;color: #dcdcaa;&quot;&gt;CheckMoveForPawn&lt;/span&gt;&lt;/div&gt;&lt;/div&gt;&#xa;&#xa;" style="whiteSpace=wrap;html=1;rounded=1;" parent="WIyWlLk6GJQsqaUBKTNV-1" vertex="1">
          <mxGeometry x="70" y="620" width="205" height="75" as="geometry" />
        </mxCell>
        <mxCell id="1xu_-Tp41ohflqt6iPf_-13" value="" style="edgeStyle=orthogonalEdgeStyle;rounded=0;orthogonalLoop=1;jettySize=auto;html=1;" parent="WIyWlLk6GJQsqaUBKTNV-1" source="1xu_-Tp41ohflqt6iPf_-10" target="1xu_-Tp41ohflqt6iPf_-12" edge="1">
          <mxGeometry relative="1" as="geometry" />
        </mxCell>
        <mxCell id="1xu_-Tp41ohflqt6iPf_-14" value="Нет" style="edgeLabel;html=1;align=center;verticalAlign=middle;resizable=0;points=[];" parent="1xu_-Tp41ohflqt6iPf_-13" vertex="1" connectable="0">
          <mxGeometry x="0.104" y="-1" relative="1" as="geometry">
            <mxPoint as="offset" />
          </mxGeometry>
        </mxCell>
        <mxCell id="1xu_-Tp41ohflqt6iPf_-16" value="" style="edgeStyle=orthogonalEdgeStyle;rounded=0;orthogonalLoop=1;jettySize=auto;html=1;" parent="WIyWlLk6GJQsqaUBKTNV-1" source="1xu_-Tp41ohflqt6iPf_-10" target="1xu_-Tp41ohflqt6iPf_-15" edge="1">
          <mxGeometry relative="1" as="geometry" />
        </mxCell>
        <mxCell id="1xu_-Tp41ohflqt6iPf_-17" value="Да" style="edgeLabel;html=1;align=center;verticalAlign=middle;resizable=0;points=[];" parent="1xu_-Tp41ohflqt6iPf_-16" vertex="1" connectable="0">
          <mxGeometry x="0.0733" y="1" relative="1" as="geometry">
            <mxPoint as="offset" />
          </mxGeometry>
        </mxCell>
        <mxCell id="1xu_-Tp41ohflqt6iPf_-10" value="Движение соотвествует правилам?" style="rhombus;whiteSpace=wrap;html=1;rounded=1;" parent="WIyWlLk6GJQsqaUBKTNV-1" vertex="1">
          <mxGeometry x="30" y="772.5" width="240" height="80" as="geometry" />
        </mxCell>
        <mxCell id="1xu_-Tp41ohflqt6iPf_-108" style="edgeStyle=orthogonalEdgeStyle;rounded=0;orthogonalLoop=1;jettySize=auto;html=1;" parent="WIyWlLk6GJQsqaUBKTNV-1" source="1xu_-Tp41ohflqt6iPf_-12" target="1xu_-Tp41ohflqt6iPf_-102" edge="1">
          <mxGeometry relative="1" as="geometry">
            <Array as="points">
              <mxPoint x="40" y="1620" />
              <mxPoint x="445" y="1620" />
            </Array>
          </mxGeometry>
        </mxCell>
        <mxCell id="1xu_-Tp41ohflqt6iPf_-12" value="Res = &quot;Нельзя&quot;" style="rounded=1;whiteSpace=wrap;html=1;opacity=60;strokeColor=#FFFFFF;align=center;verticalAlign=middle;fontFamily=Helvetica;fontSize=12;fontColor=#ffffff;fillColor=#a20025;" parent="WIyWlLk6GJQsqaUBKTNV-1" vertex="1">
          <mxGeometry x="-20" y="1295" width="120" height="60" as="geometry" />
        </mxCell>
        <mxCell id="1xu_-Tp41ohflqt6iPf_-109" style="edgeStyle=orthogonalEdgeStyle;rounded=0;orthogonalLoop=1;jettySize=auto;html=1;" parent="WIyWlLk6GJQsqaUBKTNV-1" source="1xu_-Tp41ohflqt6iPf_-15" target="1xu_-Tp41ohflqt6iPf_-102" edge="1">
          <mxGeometry relative="1" as="geometry">
            <Array as="points">
              <mxPoint x="240" y="1610" />
              <mxPoint x="445" y="1610" />
            </Array>
          </mxGeometry>
        </mxCell>
        <mxCell id="1xu_-Tp41ohflqt6iPf_-15" value="Res = &quot;Можно&quot;" style="whiteSpace=wrap;html=1;rounded=1;opacity=70;strokeColor=#FFFFFF;align=center;verticalAlign=middle;fontFamily=Helvetica;fontSize=12;fontColor=#ffffff;fillColor=#008a00;" parent="WIyWlLk6GJQsqaUBKTNV-1" vertex="1">
          <mxGeometry x="180" y="1290" width="120" height="60" as="geometry" />
        </mxCell>
        <mxCell id="1xu_-Tp41ohflqt6iPf_-26" value="" style="edgeStyle=orthogonalEdgeStyle;rounded=0;orthogonalLoop=1;jettySize=auto;html=1;" parent="WIyWlLk6GJQsqaUBKTNV-1" source="1xu_-Tp41ohflqt6iPf_-27" target="1xu_-Tp41ohflqt6iPf_-32" edge="1">
          <mxGeometry relative="1" as="geometry" />
        </mxCell>
        <mxCell id="1xu_-Tp41ohflqt6iPf_-27" value="&lt;div style=&quot;color: rgb(204, 204, 204); background-color: rgb(31, 31, 31); font-family: Consolas, &amp;quot;Courier New&amp;quot;, monospace; font-size: 14px; line-height: 19px; white-space: pre;&quot;&gt;&lt;span style=&quot;color: #dcdcaa;&quot;&gt;CheckMoveForCastle&lt;/span&gt;&lt;/div&gt;" style="whiteSpace=wrap;html=1;rounded=1;" parent="WIyWlLk6GJQsqaUBKTNV-1" vertex="1">
          <mxGeometry x="400" y="621.25" width="205" height="75" as="geometry" />
        </mxCell>
        <mxCell id="1xu_-Tp41ohflqt6iPf_-28" value="" style="edgeStyle=orthogonalEdgeStyle;rounded=0;orthogonalLoop=1;jettySize=auto;html=1;" parent="WIyWlLk6GJQsqaUBKTNV-1" source="1xu_-Tp41ohflqt6iPf_-32" target="1xu_-Tp41ohflqt6iPf_-33" edge="1">
          <mxGeometry relative="1" as="geometry" />
        </mxCell>
        <mxCell id="1xu_-Tp41ohflqt6iPf_-29" value="Нет" style="edgeLabel;html=1;align=center;verticalAlign=middle;resizable=0;points=[];" parent="1xu_-Tp41ohflqt6iPf_-28" vertex="1" connectable="0">
          <mxGeometry x="0.104" y="-1" relative="1" as="geometry">
            <mxPoint as="offset" />
          </mxGeometry>
        </mxCell>
        <mxCell id="1xu_-Tp41ohflqt6iPf_-30" value="" style="edgeStyle=orthogonalEdgeStyle;rounded=0;orthogonalLoop=1;jettySize=auto;html=1;" parent="WIyWlLk6GJQsqaUBKTNV-1" source="1xu_-Tp41ohflqt6iPf_-32" target="1xu_-Tp41ohflqt6iPf_-34" edge="1">
          <mxGeometry relative="1" as="geometry" />
        </mxCell>
        <mxCell id="1xu_-Tp41ohflqt6iPf_-31" value="Да" style="edgeLabel;html=1;align=center;verticalAlign=middle;resizable=0;points=[];" parent="1xu_-Tp41ohflqt6iPf_-30" vertex="1" connectable="0">
          <mxGeometry x="0.0733" y="1" relative="1" as="geometry">
            <mxPoint as="offset" />
          </mxGeometry>
        </mxCell>
        <mxCell id="1xu_-Tp41ohflqt6iPf_-32" value="Движение соотвествует правилам?" style="rhombus;whiteSpace=wrap;html=1;rounded=1;" parent="WIyWlLk6GJQsqaUBKTNV-1" vertex="1">
          <mxGeometry x="360" y="773.75" width="240" height="80" as="geometry" />
        </mxCell>
        <mxCell id="1xu_-Tp41ohflqt6iPf_-110" style="edgeStyle=orthogonalEdgeStyle;rounded=0;orthogonalLoop=1;jettySize=auto;html=1;" parent="WIyWlLk6GJQsqaUBKTNV-1" source="1xu_-Tp41ohflqt6iPf_-33" target="1xu_-Tp41ohflqt6iPf_-102" edge="1">
          <mxGeometry relative="1" as="geometry">
            <Array as="points">
              <mxPoint x="385" y="1600" />
              <mxPoint x="445" y="1600" />
            </Array>
          </mxGeometry>
        </mxCell>
        <mxCell id="1xu_-Tp41ohflqt6iPf_-33" value="Res = &quot;Нельзя&quot;" style="rounded=1;whiteSpace=wrap;html=1;opacity=60;strokeColor=#FFFFFF;align=center;verticalAlign=middle;fontFamily=Helvetica;fontSize=12;fontColor=#ffffff;fillColor=#a20025;" parent="WIyWlLk6GJQsqaUBKTNV-1" vertex="1">
          <mxGeometry x="325" y="1290" width="120" height="60" as="geometry" />
        </mxCell>
        <mxCell id="1xu_-Tp41ohflqt6iPf_-111" style="edgeStyle=orthogonalEdgeStyle;rounded=0;orthogonalLoop=1;jettySize=auto;html=1;" parent="WIyWlLk6GJQsqaUBKTNV-1" source="1xu_-Tp41ohflqt6iPf_-34" target="1xu_-Tp41ohflqt6iPf_-102" edge="1">
          <mxGeometry relative="1" as="geometry">
            <Array as="points">
              <mxPoint x="540" y="1600" />
              <mxPoint x="445" y="1600" />
            </Array>
          </mxGeometry>
        </mxCell>
        <mxCell id="1xu_-Tp41ohflqt6iPf_-34" value="Res = &quot;Можно&quot;" style="whiteSpace=wrap;html=1;rounded=1;opacity=70;strokeColor=#FFFFFF;align=center;verticalAlign=middle;fontFamily=Helvetica;fontSize=12;fontColor=#ffffff;fillColor=#008a00;" parent="WIyWlLk6GJQsqaUBKTNV-1" vertex="1">
          <mxGeometry x="480" y="1290" width="120" height="60" as="geometry" />
        </mxCell>
        <mxCell id="1xu_-Tp41ohflqt6iPf_-35" value="" style="edgeStyle=orthogonalEdgeStyle;rounded=0;orthogonalLoop=1;jettySize=auto;html=1;" parent="WIyWlLk6GJQsqaUBKTNV-1" source="1xu_-Tp41ohflqt6iPf_-36" target="1xu_-Tp41ohflqt6iPf_-41" edge="1">
          <mxGeometry relative="1" as="geometry" />
        </mxCell>
        <mxCell id="1xu_-Tp41ohflqt6iPf_-36" value="&lt;div style=&quot;color: rgb(204, 204, 204); background-color: rgb(31, 31, 31); font-family: Consolas, &amp;quot;Courier New&amp;quot;, monospace; font-size: 14px; line-height: 19px; white-space: pre;&quot;&gt;&lt;span style=&quot;color: #dcdcaa;&quot;&gt;CheckMoveForHorse&lt;/span&gt;&lt;/div&gt;" style="whiteSpace=wrap;html=1;rounded=1;" parent="WIyWlLk6GJQsqaUBKTNV-1" vertex="1">
          <mxGeometry x="720" y="622.5" width="205" height="75" as="geometry" />
        </mxCell>
        <mxCell id="1xu_-Tp41ohflqt6iPf_-37" value="" style="edgeStyle=orthogonalEdgeStyle;rounded=0;orthogonalLoop=1;jettySize=auto;html=1;" parent="WIyWlLk6GJQsqaUBKTNV-1" source="1xu_-Tp41ohflqt6iPf_-41" target="1xu_-Tp41ohflqt6iPf_-42" edge="1">
          <mxGeometry relative="1" as="geometry" />
        </mxCell>
        <mxCell id="1xu_-Tp41ohflqt6iPf_-38" value="Нет" style="edgeLabel;html=1;align=center;verticalAlign=middle;resizable=0;points=[];" parent="1xu_-Tp41ohflqt6iPf_-37" vertex="1" connectable="0">
          <mxGeometry x="0.104" y="-1" relative="1" as="geometry">
            <mxPoint as="offset" />
          </mxGeometry>
        </mxCell>
        <mxCell id="1xu_-Tp41ohflqt6iPf_-39" value="" style="edgeStyle=orthogonalEdgeStyle;rounded=0;orthogonalLoop=1;jettySize=auto;html=1;" parent="WIyWlLk6GJQsqaUBKTNV-1" source="1xu_-Tp41ohflqt6iPf_-41" target="1xu_-Tp41ohflqt6iPf_-43" edge="1">
          <mxGeometry relative="1" as="geometry" />
        </mxCell>
        <mxCell id="1xu_-Tp41ohflqt6iPf_-40" value="Да" style="edgeLabel;html=1;align=center;verticalAlign=middle;resizable=0;points=[];" parent="1xu_-Tp41ohflqt6iPf_-39" vertex="1" connectable="0">
          <mxGeometry x="0.0733" y="1" relative="1" as="geometry">
            <mxPoint as="offset" />
          </mxGeometry>
        </mxCell>
        <mxCell id="1xu_-Tp41ohflqt6iPf_-41" value="Движение соотвествует правилам?" style="rhombus;whiteSpace=wrap;html=1;rounded=1;" parent="WIyWlLk6GJQsqaUBKTNV-1" vertex="1">
          <mxGeometry x="680" y="775" width="240" height="80" as="geometry" />
        </mxCell>
        <mxCell id="1xu_-Tp41ohflqt6iPf_-112" style="edgeStyle=orthogonalEdgeStyle;rounded=0;orthogonalLoop=1;jettySize=auto;html=1;" parent="WIyWlLk6GJQsqaUBKTNV-1" source="1xu_-Tp41ohflqt6iPf_-42" target="1xu_-Tp41ohflqt6iPf_-102" edge="1">
          <mxGeometry relative="1" as="geometry">
            <Array as="points">
              <mxPoint x="700" y="1610" />
              <mxPoint x="445" y="1610" />
            </Array>
          </mxGeometry>
        </mxCell>
        <mxCell id="1xu_-Tp41ohflqt6iPf_-42" value="Res = &quot;Нельзя&quot;" style="rounded=1;whiteSpace=wrap;html=1;opacity=60;strokeColor=#FFFFFF;align=center;verticalAlign=middle;fontFamily=Helvetica;fontSize=12;fontColor=#ffffff;fillColor=#a20025;" parent="WIyWlLk6GJQsqaUBKTNV-1" vertex="1">
          <mxGeometry x="640" y="1280" width="120" height="60" as="geometry" />
        </mxCell>
        <mxCell id="1xu_-Tp41ohflqt6iPf_-113" style="edgeStyle=orthogonalEdgeStyle;rounded=0;orthogonalLoop=1;jettySize=auto;html=1;" parent="WIyWlLk6GJQsqaUBKTNV-1" source="1xu_-Tp41ohflqt6iPf_-43" target="1xu_-Tp41ohflqt6iPf_-102" edge="1">
          <mxGeometry relative="1" as="geometry">
            <Array as="points">
              <mxPoint x="887" y="1620" />
              <mxPoint x="445" y="1620" />
            </Array>
          </mxGeometry>
        </mxCell>
        <mxCell id="1xu_-Tp41ohflqt6iPf_-43" value="Res = &quot;Можно&quot;" style="whiteSpace=wrap;html=1;rounded=1;opacity=70;strokeColor=#FFFFFF;align=center;verticalAlign=middle;fontFamily=Helvetica;fontSize=12;fontColor=#ffffff;fillColor=#008a00;" parent="WIyWlLk6GJQsqaUBKTNV-1" vertex="1">
          <mxGeometry x="827" y="1280" width="120" height="60" as="geometry" />
        </mxCell>
        <mxCell id="1xu_-Tp41ohflqt6iPf_-44" value="" style="edgeStyle=orthogonalEdgeStyle;rounded=0;orthogonalLoop=1;jettySize=auto;html=1;" parent="WIyWlLk6GJQsqaUBKTNV-1" source="1xu_-Tp41ohflqt6iPf_-45" target="1xu_-Tp41ohflqt6iPf_-50" edge="1">
          <mxGeometry relative="1" as="geometry" />
        </mxCell>
        <mxCell id="1xu_-Tp41ohflqt6iPf_-45" value="&lt;div style=&quot;color: rgb(204, 204, 204); background-color: rgb(31, 31, 31); font-family: Consolas, &amp;quot;Courier New&amp;quot;, monospace; font-size: 14px; line-height: 19px; white-space: pre;&quot;&gt;&lt;span style=&quot;color: #dcdcaa;&quot;&gt;CheckMoveForElephant&lt;/span&gt;&lt;/div&gt;" style="whiteSpace=wrap;html=1;rounded=1;" parent="WIyWlLk6GJQsqaUBKTNV-1" vertex="1">
          <mxGeometry x="1060" y="620" width="205" height="75" as="geometry" />
        </mxCell>
        <mxCell id="1xu_-Tp41ohflqt6iPf_-46" value="" style="edgeStyle=orthogonalEdgeStyle;rounded=0;orthogonalLoop=1;jettySize=auto;html=1;" parent="WIyWlLk6GJQsqaUBKTNV-1" source="1xu_-Tp41ohflqt6iPf_-50" target="1xu_-Tp41ohflqt6iPf_-51" edge="1">
          <mxGeometry relative="1" as="geometry" />
        </mxCell>
        <mxCell id="1xu_-Tp41ohflqt6iPf_-47" value="Нет" style="edgeLabel;html=1;align=center;verticalAlign=middle;resizable=0;points=[];" parent="1xu_-Tp41ohflqt6iPf_-46" vertex="1" connectable="0">
          <mxGeometry x="0.104" y="-1" relative="1" as="geometry">
            <mxPoint as="offset" />
          </mxGeometry>
        </mxCell>
        <mxCell id="1xu_-Tp41ohflqt6iPf_-48" value="" style="edgeStyle=orthogonalEdgeStyle;rounded=0;orthogonalLoop=1;jettySize=auto;html=1;" parent="WIyWlLk6GJQsqaUBKTNV-1" source="1xu_-Tp41ohflqt6iPf_-50" target="1xu_-Tp41ohflqt6iPf_-52" edge="1">
          <mxGeometry relative="1" as="geometry" />
        </mxCell>
        <mxCell id="1xu_-Tp41ohflqt6iPf_-49" value="Да" style="edgeLabel;html=1;align=center;verticalAlign=middle;resizable=0;points=[];" parent="1xu_-Tp41ohflqt6iPf_-48" vertex="1" connectable="0">
          <mxGeometry x="0.0733" y="1" relative="1" as="geometry">
            <mxPoint as="offset" />
          </mxGeometry>
        </mxCell>
        <mxCell id="1xu_-Tp41ohflqt6iPf_-50" value="Движение соотвествует правилам?" style="rhombus;whiteSpace=wrap;html=1;rounded=1;" parent="WIyWlLk6GJQsqaUBKTNV-1" vertex="1">
          <mxGeometry x="1020" y="772.5" width="240" height="80" as="geometry" />
        </mxCell>
        <mxCell id="1xu_-Tp41ohflqt6iPf_-114" style="edgeStyle=orthogonalEdgeStyle;rounded=0;orthogonalLoop=1;jettySize=auto;html=1;" parent="WIyWlLk6GJQsqaUBKTNV-1" source="1xu_-Tp41ohflqt6iPf_-51" target="1xu_-Tp41ohflqt6iPf_-102" edge="1">
          <mxGeometry relative="1" as="geometry">
            <Array as="points">
              <mxPoint x="1050" y="1630" />
              <mxPoint x="445" y="1630" />
            </Array>
          </mxGeometry>
        </mxCell>
        <mxCell id="1xu_-Tp41ohflqt6iPf_-51" value="Res = &quot;Нельзя&quot;" style="rounded=1;whiteSpace=wrap;html=1;opacity=60;strokeColor=#FFFFFF;align=center;verticalAlign=middle;fontFamily=Helvetica;fontSize=12;fontColor=#ffffff;fillColor=#a20025;" parent="WIyWlLk6GJQsqaUBKTNV-1" vertex="1">
          <mxGeometry x="990" y="1280" width="120" height="60" as="geometry" />
        </mxCell>
        <mxCell id="1xu_-Tp41ohflqt6iPf_-115" style="edgeStyle=orthogonalEdgeStyle;rounded=0;orthogonalLoop=1;jettySize=auto;html=1;" parent="WIyWlLk6GJQsqaUBKTNV-1" source="1xu_-Tp41ohflqt6iPf_-52" target="1xu_-Tp41ohflqt6iPf_-102" edge="1">
          <mxGeometry relative="1" as="geometry">
            <Array as="points">
              <mxPoint x="1230" y="1640" />
              <mxPoint x="445" y="1640" />
            </Array>
          </mxGeometry>
        </mxCell>
        <mxCell id="1xu_-Tp41ohflqt6iPf_-52" value="Res = &quot;Можно&quot;" style="whiteSpace=wrap;html=1;rounded=1;fillColor=#008a00;fontColor=#ffffff;strokeColor=#FFFFFF;opacity=70;" parent="WIyWlLk6GJQsqaUBKTNV-1" vertex="1">
          <mxGeometry x="1170" y="1280" width="120" height="60" as="geometry" />
        </mxCell>
        <mxCell id="1xu_-Tp41ohflqt6iPf_-53" value="" style="edgeStyle=orthogonalEdgeStyle;rounded=0;orthogonalLoop=1;jettySize=auto;html=1;" parent="WIyWlLk6GJQsqaUBKTNV-1" source="1xu_-Tp41ohflqt6iPf_-54" target="1xu_-Tp41ohflqt6iPf_-59" edge="1">
          <mxGeometry relative="1" as="geometry" />
        </mxCell>
        <mxCell id="1xu_-Tp41ohflqt6iPf_-54" value="&lt;div style=&quot;color: rgb(204, 204, 204); background-color: rgb(31, 31, 31); font-family: Consolas, &amp;quot;Courier New&amp;quot;, monospace; font-size: 14px; line-height: 19px; white-space: pre;&quot;&gt;&lt;span style=&quot;color: #dcdcaa;&quot;&gt;CheckMoveForKing&lt;/span&gt;&lt;/div&gt;" style="whiteSpace=wrap;html=1;rounded=1;" parent="WIyWlLk6GJQsqaUBKTNV-1" vertex="1">
          <mxGeometry x="-270" y="622.5" width="205" height="75" as="geometry" />
        </mxCell>
        <mxCell id="1xu_-Tp41ohflqt6iPf_-55" value="" style="edgeStyle=orthogonalEdgeStyle;rounded=0;orthogonalLoop=1;jettySize=auto;html=1;" parent="WIyWlLk6GJQsqaUBKTNV-1" source="1xu_-Tp41ohflqt6iPf_-59" target="1xu_-Tp41ohflqt6iPf_-60" edge="1">
          <mxGeometry relative="1" as="geometry" />
        </mxCell>
        <mxCell id="1xu_-Tp41ohflqt6iPf_-56" value="Нет" style="edgeLabel;html=1;align=center;verticalAlign=middle;resizable=0;points=[];" parent="1xu_-Tp41ohflqt6iPf_-55" vertex="1" connectable="0">
          <mxGeometry x="0.104" y="-1" relative="1" as="geometry">
            <mxPoint as="offset" />
          </mxGeometry>
        </mxCell>
        <mxCell id="1xu_-Tp41ohflqt6iPf_-57" value="" style="edgeStyle=orthogonalEdgeStyle;rounded=0;orthogonalLoop=1;jettySize=auto;html=1;" parent="WIyWlLk6GJQsqaUBKTNV-1" source="1xu_-Tp41ohflqt6iPf_-59" target="1xu_-Tp41ohflqt6iPf_-61" edge="1">
          <mxGeometry relative="1" as="geometry" />
        </mxCell>
        <mxCell id="1xu_-Tp41ohflqt6iPf_-58" value="Да" style="edgeLabel;html=1;align=center;verticalAlign=middle;resizable=0;points=[];" parent="1xu_-Tp41ohflqt6iPf_-57" vertex="1" connectable="0">
          <mxGeometry x="0.0733" y="1" relative="1" as="geometry">
            <mxPoint as="offset" />
          </mxGeometry>
        </mxCell>
        <mxCell id="1xu_-Tp41ohflqt6iPf_-59" value="Движение соотвествует правилам?" style="rhombus;whiteSpace=wrap;html=1;rounded=1;" parent="WIyWlLk6GJQsqaUBKTNV-1" vertex="1">
          <mxGeometry x="-310" y="775" width="240" height="80" as="geometry" />
        </mxCell>
        <mxCell id="1xu_-Tp41ohflqt6iPf_-106" style="edgeStyle=orthogonalEdgeStyle;rounded=0;orthogonalLoop=1;jettySize=auto;html=1;entryX=0.5;entryY=0;entryDx=0;entryDy=0;" parent="WIyWlLk6GJQsqaUBKTNV-1" source="1xu_-Tp41ohflqt6iPf_-60" target="1xu_-Tp41ohflqt6iPf_-102" edge="1">
          <mxGeometry relative="1" as="geometry">
            <Array as="points">
              <mxPoint x="-290" y="1640" />
              <mxPoint x="445" y="1640" />
            </Array>
          </mxGeometry>
        </mxCell>
        <mxCell id="1xu_-Tp41ohflqt6iPf_-60" value="Res = &quot;Нельзя&quot;" style="rounded=1;whiteSpace=wrap;html=1;fillColor=#a20025;fontColor=#ffffff;strokeColor=#FFFFFF;opacity=60;" parent="WIyWlLk6GJQsqaUBKTNV-1" vertex="1">
          <mxGeometry x="-350" y="1295" width="120" height="60" as="geometry" />
        </mxCell>
        <mxCell id="1xu_-Tp41ohflqt6iPf_-107" style="edgeStyle=orthogonalEdgeStyle;rounded=0;orthogonalLoop=1;jettySize=auto;html=1;entryX=0.5;entryY=0;entryDx=0;entryDy=0;" parent="WIyWlLk6GJQsqaUBKTNV-1" source="1xu_-Tp41ohflqt6iPf_-61" target="1xu_-Tp41ohflqt6iPf_-102" edge="1">
          <mxGeometry relative="1" as="geometry">
            <Array as="points">
              <mxPoint x="-130" y="1630" />
              <mxPoint x="445" y="1630" />
            </Array>
          </mxGeometry>
        </mxCell>
        <mxCell id="1xu_-Tp41ohflqt6iPf_-61" value="Res = &quot;Можно&quot;" style="whiteSpace=wrap;html=1;rounded=1;opacity=70;strokeColor=#FFFFFF;align=center;verticalAlign=middle;fontFamily=Helvetica;fontSize=12;fontColor=#ffffff;fillColor=#008a00;" parent="WIyWlLk6GJQsqaUBKTNV-1" vertex="1">
          <mxGeometry x="-190" y="1295" width="120" height="60" as="geometry" />
        </mxCell>
        <mxCell id="1xu_-Tp41ohflqt6iPf_-70" value="" style="edgeStyle=orthogonalEdgeStyle;rounded=0;orthogonalLoop=1;jettySize=auto;html=1;" parent="WIyWlLk6GJQsqaUBKTNV-1" source="1xu_-Tp41ohflqt6iPf_-71" target="1xu_-Tp41ohflqt6iPf_-76" edge="1">
          <mxGeometry relative="1" as="geometry" />
        </mxCell>
        <mxCell id="1xu_-Tp41ohflqt6iPf_-71" value="&lt;div style=&quot;background-color: rgb(31, 31, 31); font-family: Consolas, &amp;quot;Courier New&amp;quot;, monospace; font-size: 14px; line-height: 19px; white-space: pre;&quot;&gt;&lt;font color=&quot;#dcdcaa&quot;&gt;Queen&lt;/font&gt;&lt;/div&gt;" style="whiteSpace=wrap;html=1;rounded=1;" parent="WIyWlLk6GJQsqaUBKTNV-1" vertex="1">
          <mxGeometry x="-650" y="622.5" width="205" height="75" as="geometry" />
        </mxCell>
        <mxCell id="1xu_-Tp41ohflqt6iPf_-72" value="" style="edgeStyle=orthogonalEdgeStyle;rounded=0;orthogonalLoop=1;jettySize=auto;html=1;" parent="WIyWlLk6GJQsqaUBKTNV-1" source="1xu_-Tp41ohflqt6iPf_-76" target="1xu_-Tp41ohflqt6iPf_-77" edge="1">
          <mxGeometry relative="1" as="geometry" />
        </mxCell>
        <mxCell id="1xu_-Tp41ohflqt6iPf_-73" value="Нет" style="edgeLabel;html=1;align=center;verticalAlign=middle;resizable=0;points=[];" parent="1xu_-Tp41ohflqt6iPf_-72" vertex="1" connectable="0">
          <mxGeometry x="0.104" y="-1" relative="1" as="geometry">
            <mxPoint as="offset" />
          </mxGeometry>
        </mxCell>
        <mxCell id="1xu_-Tp41ohflqt6iPf_-74" value="" style="edgeStyle=orthogonalEdgeStyle;rounded=0;orthogonalLoop=1;jettySize=auto;html=1;" parent="WIyWlLk6GJQsqaUBKTNV-1" source="1xu_-Tp41ohflqt6iPf_-76" target="1xu_-Tp41ohflqt6iPf_-78" edge="1">
          <mxGeometry relative="1" as="geometry">
            <Array as="points">
              <mxPoint x="-570" y="940" />
              <mxPoint x="-420" y="940" />
            </Array>
          </mxGeometry>
        </mxCell>
        <mxCell id="1xu_-Tp41ohflqt6iPf_-75" value="Да" style="edgeLabel;html=1;align=center;verticalAlign=middle;resizable=0;points=[];" parent="1xu_-Tp41ohflqt6iPf_-74" vertex="1" connectable="0">
          <mxGeometry x="0.0733" y="1" relative="1" as="geometry">
            <mxPoint as="offset" />
          </mxGeometry>
        </mxCell>
        <mxCell id="1xu_-Tp41ohflqt6iPf_-82" style="edgeStyle=orthogonalEdgeStyle;rounded=0;orthogonalLoop=1;jettySize=auto;html=1;exitX=0;exitY=0.5;exitDx=0;exitDy=0;" parent="WIyWlLk6GJQsqaUBKTNV-1" source="1xu_-Tp41ohflqt6iPf_-76" edge="1">
          <mxGeometry relative="1" as="geometry">
            <mxPoint x="-690.2352941176471" y="879.5882352941178" as="targetPoint" />
          </mxGeometry>
        </mxCell>
        <mxCell id="1xu_-Tp41ohflqt6iPf_-76" value="Движение соотвествует правилам?" style="rhombus;whiteSpace=wrap;html=1;rounded=1;" parent="WIyWlLk6GJQsqaUBKTNV-1" vertex="1">
          <mxGeometry x="-690" y="840" width="240" height="80" as="geometry" />
        </mxCell>
        <mxCell id="1xu_-Tp41ohflqt6iPf_-92" value="" style="edgeStyle=orthogonalEdgeStyle;rounded=0;orthogonalLoop=1;jettySize=auto;html=1;" parent="WIyWlLk6GJQsqaUBKTNV-1" source="1xu_-Tp41ohflqt6iPf_-77" target="1xu_-Tp41ohflqt6iPf_-83" edge="1">
          <mxGeometry relative="1" as="geometry" />
        </mxCell>
        <mxCell id="1xu_-Tp41ohflqt6iPf_-77" value="Res = &quot;Нельзя&quot;" style="rounded=1;whiteSpace=wrap;html=1;fillColor=#a20025;fontColor=#ffffff;strokeColor=#FFFFFF;opacity=60;" parent="WIyWlLk6GJQsqaUBKTNV-1" vertex="1">
          <mxGeometry x="-730" y="945" width="120" height="60" as="geometry" />
        </mxCell>
        <mxCell id="1xu_-Tp41ohflqt6iPf_-105" style="edgeStyle=orthogonalEdgeStyle;rounded=0;orthogonalLoop=1;jettySize=auto;html=1;entryX=0.5;entryY=0;entryDx=0;entryDy=0;" parent="WIyWlLk6GJQsqaUBKTNV-1" source="1xu_-Tp41ohflqt6iPf_-78" target="1xu_-Tp41ohflqt6iPf_-102" edge="1">
          <mxGeometry relative="1" as="geometry">
            <Array as="points">
              <mxPoint x="-420" y="1650" />
              <mxPoint x="445" y="1650" />
            </Array>
          </mxGeometry>
        </mxCell>
        <mxCell id="1xu_-Tp41ohflqt6iPf_-78" value="Res = &quot;Можно&quot;" style="whiteSpace=wrap;html=1;rounded=1;opacity=70;strokeColor=#FFFFFF;align=center;verticalAlign=middle;fontFamily=Helvetica;fontSize=12;fontColor=#ffffff;fillColor=#008a00;" parent="WIyWlLk6GJQsqaUBKTNV-1" vertex="1">
          <mxGeometry x="-480" y="1295" width="120" height="60" as="geometry" />
        </mxCell>
        <mxCell id="1xu_-Tp41ohflqt6iPf_-79" value="&lt;div style=&quot;color: rgb(204, 204, 204); background-color: rgb(31, 31, 31); font-family: Consolas, &amp;quot;Courier New&amp;quot;, monospace; font-size: 14px; line-height: 19px; white-space: pre;&quot;&gt;&lt;span style=&quot;color: #dcdcaa;&quot;&gt;CheckMoveForElephant&lt;/span&gt;&lt;/div&gt;" style="rounded=1;whiteSpace=wrap;html=1;" parent="WIyWlLk6GJQsqaUBKTNV-1" vertex="1">
          <mxGeometry x="-657.5" y="740" width="220" height="60" as="geometry" />
        </mxCell>
        <mxCell id="1xu_-Tp41ohflqt6iPf_-93" value="" style="edgeStyle=orthogonalEdgeStyle;rounded=0;orthogonalLoop=1;jettySize=auto;html=1;" parent="WIyWlLk6GJQsqaUBKTNV-1" source="1xu_-Tp41ohflqt6iPf_-83" target="1xu_-Tp41ohflqt6iPf_-89" edge="1">
          <mxGeometry relative="1" as="geometry" />
        </mxCell>
        <mxCell id="1xu_-Tp41ohflqt6iPf_-83" value="&#xa;&lt;div style=&quot;color: #cccccc;background-color: #1f1f1f;font-family: Consolas, &#39;Courier New&#39;, monospace;font-weight: normal;font-size: 14px;line-height: 19px;white-space: pre;&quot;&gt;&lt;div&gt;&lt;span style=&quot;color: #dcdcaa;&quot;&gt;CheckMoveForCastle&lt;/span&gt;&lt;/div&gt;&lt;/div&gt;&#xa;&#xa;" style="rounded=1;whiteSpace=wrap;html=1;" parent="WIyWlLk6GJQsqaUBKTNV-1" vertex="1">
          <mxGeometry x="-790" y="1060" width="230" height="60" as="geometry" />
        </mxCell>
        <mxCell id="1xu_-Tp41ohflqt6iPf_-84" value="" style="edgeStyle=orthogonalEdgeStyle;rounded=0;orthogonalLoop=1;jettySize=auto;html=1;" parent="WIyWlLk6GJQsqaUBKTNV-1" source="1xu_-Tp41ohflqt6iPf_-89" target="1xu_-Tp41ohflqt6iPf_-90" edge="1">
          <mxGeometry relative="1" as="geometry" />
        </mxCell>
        <mxCell id="1xu_-Tp41ohflqt6iPf_-85" value="Нет" style="edgeLabel;html=1;align=center;verticalAlign=middle;resizable=0;points=[];" parent="1xu_-Tp41ohflqt6iPf_-84" vertex="1" connectable="0">
          <mxGeometry x="0.104" y="-1" relative="1" as="geometry">
            <mxPoint as="offset" />
          </mxGeometry>
        </mxCell>
        <mxCell id="1xu_-Tp41ohflqt6iPf_-86" value="" style="edgeStyle=orthogonalEdgeStyle;rounded=0;orthogonalLoop=1;jettySize=auto;html=1;" parent="WIyWlLk6GJQsqaUBKTNV-1" source="1xu_-Tp41ohflqt6iPf_-89" target="1xu_-Tp41ohflqt6iPf_-91" edge="1">
          <mxGeometry relative="1" as="geometry" />
        </mxCell>
        <mxCell id="1xu_-Tp41ohflqt6iPf_-87" value="Да" style="edgeLabel;html=1;align=center;verticalAlign=middle;resizable=0;points=[];" parent="1xu_-Tp41ohflqt6iPf_-86" vertex="1" connectable="0">
          <mxGeometry x="0.0733" y="1" relative="1" as="geometry">
            <mxPoint as="offset" />
          </mxGeometry>
        </mxCell>
        <mxCell id="1xu_-Tp41ohflqt6iPf_-88" style="edgeStyle=orthogonalEdgeStyle;rounded=0;orthogonalLoop=1;jettySize=auto;html=1;exitX=0;exitY=0.5;exitDx=0;exitDy=0;" parent="WIyWlLk6GJQsqaUBKTNV-1" source="1xu_-Tp41ohflqt6iPf_-89" edge="1">
          <mxGeometry relative="1" as="geometry">
            <mxPoint x="-790.2352941176471" y="1229.5882352941178" as="targetPoint" />
          </mxGeometry>
        </mxCell>
        <mxCell id="1xu_-Tp41ohflqt6iPf_-89" value="Движение соотвествует правилам?" style="rhombus;whiteSpace=wrap;html=1;rounded=1;" parent="WIyWlLk6GJQsqaUBKTNV-1" vertex="1">
          <mxGeometry x="-790" y="1190" width="240" height="80" as="geometry" />
        </mxCell>
        <mxCell id="1xu_-Tp41ohflqt6iPf_-103" style="edgeStyle=orthogonalEdgeStyle;rounded=0;orthogonalLoop=1;jettySize=auto;html=1;" parent="WIyWlLk6GJQsqaUBKTNV-1" edge="1">
          <mxGeometry relative="1" as="geometry">
            <Array as="points">
              <mxPoint x="-765" y="1680" />
            </Array>
            <mxPoint x="-765" y="1355" as="sourcePoint" />
            <mxPoint x="445" y="1760" as="targetPoint" />
          </mxGeometry>
        </mxCell>
        <mxCell id="1xu_-Tp41ohflqt6iPf_-90" value="Res = &quot;Нельзя&quot;" style="rounded=1;whiteSpace=wrap;html=1;fillColor=#a20025;fontColor=#ffffff;strokeColor=#FFFFFF;opacity=60;" parent="WIyWlLk6GJQsqaUBKTNV-1" vertex="1">
          <mxGeometry x="-830" y="1295" width="120" height="60" as="geometry" />
        </mxCell>
        <mxCell id="1xu_-Tp41ohflqt6iPf_-104" style="edgeStyle=orthogonalEdgeStyle;rounded=0;orthogonalLoop=1;jettySize=auto;html=1;" parent="WIyWlLk6GJQsqaUBKTNV-1" source="1xu_-Tp41ohflqt6iPf_-91" target="1xu_-Tp41ohflqt6iPf_-102" edge="1">
          <mxGeometry relative="1" as="geometry">
            <Array as="points">
              <mxPoint x="-580" y="1660" />
              <mxPoint x="445" y="1660" />
            </Array>
          </mxGeometry>
        </mxCell>
        <mxCell id="1xu_-Tp41ohflqt6iPf_-91" value="Res = &quot;Можно&quot;" style="whiteSpace=wrap;html=1;rounded=1;opacity=70;strokeColor=#FFFFFF;align=center;verticalAlign=middle;fontFamily=Helvetica;fontSize=12;fontColor=#ffffff;fillColor=#008a00;" parent="WIyWlLk6GJQsqaUBKTNV-1" vertex="1">
          <mxGeometry x="-640" y="1295" width="120" height="60" as="geometry" />
        </mxCell>
        <mxCell id="1xu_-Tp41ohflqt6iPf_-97" value="" style="edgeStyle=orthogonalEdgeStyle;rounded=0;orthogonalLoop=1;jettySize=auto;html=1;" parent="WIyWlLk6GJQsqaUBKTNV-1" source="1xu_-Tp41ohflqt6iPf_-95" target="1xu_-Tp41ohflqt6iPf_-96" edge="1">
          <mxGeometry relative="1" as="geometry" />
        </mxCell>
        <mxCell id="1xu_-Tp41ohflqt6iPf_-95" value="Неизвестная фигура" style="rounded=1;whiteSpace=wrap;html=1;" parent="WIyWlLk6GJQsqaUBKTNV-1" vertex="1">
          <mxGeometry x="1340" y="622.5" width="220" height="60" as="geometry" />
        </mxCell>
        <mxCell id="1xu_-Tp41ohflqt6iPf_-116" style="edgeStyle=orthogonalEdgeStyle;rounded=0;orthogonalLoop=1;jettySize=auto;html=1;" parent="WIyWlLk6GJQsqaUBKTNV-1" source="1xu_-Tp41ohflqt6iPf_-96" target="1xu_-Tp41ohflqt6iPf_-102" edge="1">
          <mxGeometry relative="1" as="geometry">
            <Array as="points">
              <mxPoint x="1450" y="1660" />
              <mxPoint x="445" y="1660" />
            </Array>
          </mxGeometry>
        </mxCell>
        <mxCell id="1xu_-Tp41ohflqt6iPf_-96" value="Неизвестная фигура" style="whiteSpace=wrap;html=1;rounded=1;fillColor=#FFE599;opacity=60;strokeWidth=5;" parent="WIyWlLk6GJQsqaUBKTNV-1" vertex="1">
          <mxGeometry x="1360" y="1280" width="180" height="60" as="geometry" />
        </mxCell>
        <mxCell id="1xu_-Tp41ohflqt6iPf_-102" value="&lt;font style=&quot;font-size: 37px;&quot;&gt;Вывод res на экран&lt;/font&gt;" style="rounded=1;whiteSpace=wrap;html=1;" parent="WIyWlLk6GJQsqaUBKTNV-1" vertex="1">
          <mxGeometry x="200" y="1760" width="490" height="120" as="geometry" />
        </mxCell>
        <mxCell id="Slp04zxqnDzLB197546l-2" style="edgeStyle=orthogonalEdgeStyle;rounded=0;orthogonalLoop=1;jettySize=auto;html=1;entryX=0.444;entryY=0;entryDx=0;entryDy=0;entryPerimeter=0;" edge="1" parent="WIyWlLk6GJQsqaUBKTNV-1" source="1xu_-Tp41ohflqt6iPf_-4" target="1xu_-Tp41ohflqt6iPf_-5">
          <mxGeometry relative="1" as="geometry" />
        </mxCell>
      </root>
    </mxGraphModel>
  </diagram>
</mxfile>
